<svg width="17" height="17" viewBox="0 0 17 17" fill="none" xmlns="http://www.w3.org/2000/svg">
<circle cx="8.57983" cy="8.07568" r="8" fill="#CD94F0"/>
<path opacity="0.2" d="M14.2085 8.07571C14.2087 8.57467 14.0541 9.0614 13.7661 9.46885C13.4781 9.87629 13.0708 10.1844 12.6004 10.3507V10.6889C12.6004 11.2221 12.3886 11.7333 12.0117 12.1103C11.6347 12.4873 11.1234 12.6991 10.5903 12.6991C10.0571 12.6991 9.54583 12.4873 9.16885 12.1103C8.79187 11.7333 8.58009 11.2221 8.58009 10.6889C8.58009 11.2221 8.3683 11.7333 7.99132 12.1103C7.61434 12.4873 7.10305 12.6991 6.56992 12.6991C6.03679 12.6991 5.5255 12.4873 5.14852 12.1103C4.77154 11.7333 4.55975 11.2221 4.55975 10.6889V10.3507C4.08893 10.1848 3.68119 9.8768 3.39277 9.46933C3.10435 9.06186 2.94946 8.57493 2.94946 8.07571C2.94946 7.57649 3.10435 7.08957 3.39277 6.68209C3.68119 6.27462 4.08893 5.96667 4.55975 5.80071V5.4625C4.55975 4.92937 4.77154 4.41807 5.14852 4.0411C5.5255 3.66412 6.03679 3.45233 6.56992 3.45233C7.10305 3.45233 7.61434 3.66412 7.99132 4.0411C8.3683 4.41807 8.58009 4.92937 8.58009 5.4625C8.58009 4.92937 8.79187 4.41807 9.16885 4.0411C9.54583 3.66412 10.0571 3.45233 10.5903 3.45233C11.1234 3.45233 11.6347 3.66412 12.0117 4.0411C12.3886 4.41807 12.6004 4.92937 12.6004 5.4625V5.80071C13.0708 5.96703 13.4781 6.27513 13.7661 6.68258C14.0541 7.09002 14.2087 7.57675 14.2085 8.07571Z" fill="black"/>
<path d="M14.6106 8.07568C14.61 7.54315 14.4587 7.02166 14.1741 6.57156C13.8895 6.12146 13.4833 5.76114 13.0024 5.53232V5.46247C13.002 4.94446 12.8348 4.44036 12.5256 4.02475C12.2163 3.60915 11.7816 3.30413 11.2855 3.15481C10.7895 3.0055 10.2586 3.01983 9.77135 3.19568C9.2841 3.37153 8.86641 3.69956 8.58007 4.13124C8.29373 3.69956 7.87603 3.37153 7.38878 3.19568C6.90153 3.01983 6.37062 3.0055 5.87459 3.15481C5.37857 3.30413 4.94379 3.60915 4.63458 4.02475C4.32537 4.44036 4.15817 4.94446 4.1577 5.46247V5.53232C3.67644 5.76052 3.26981 6.1206 2.98508 6.57073C2.70034 7.02086 2.54919 7.54255 2.54919 8.07518C2.54919 8.60781 2.70034 9.1295 2.98508 9.57963C3.26981 10.0298 3.67644 10.3898 4.1577 10.618V10.6889C4.15817 11.2069 4.32537 11.711 4.63458 12.1266C4.94379 12.5422 5.37857 12.8472 5.87459 12.9966C6.37062 13.1459 6.90153 13.1315 7.38878 12.9557C7.87603 12.7798 8.29373 12.4518 8.58007 12.0201C8.86641 12.4518 9.2841 12.7798 9.77135 12.9557C10.2586 13.1315 10.7895 13.1459 11.2855 12.9966C11.7816 12.8472 12.2163 12.5422 12.5256 12.1266C12.8348 11.711 13.002 11.2069 13.0024 10.6889V10.618C13.4832 10.3894 13.8894 10.0293 14.174 9.57932C14.4586 9.12939 14.61 8.60807 14.6106 8.07568ZM6.5699 12.297C6.17337 12.297 5.79084 12.1504 5.49578 11.8855C5.20072 11.6206 5.01394 11.256 4.97132 10.8618C5.10133 10.8803 5.23248 10.8897 5.3638 10.8899H5.76584C5.87246 10.8899 5.97472 10.8476 6.05012 10.7722C6.12551 10.6968 6.16787 10.5945 6.16787 10.4879C6.16787 10.3813 6.12551 10.279 6.05012 10.2036C5.97472 10.1282 5.87246 10.0858 5.76584 10.0858H5.3638C4.88918 10.0864 4.42967 9.919 4.06663 9.61328C3.70359 9.30756 3.46043 8.88324 3.38021 8.41545C3.29999 7.94766 3.38788 7.46657 3.62831 7.05736C3.86875 6.64814 4.24623 6.33721 4.69391 6.17959C4.77225 6.15186 4.84006 6.10054 4.88803 6.03268C4.93599 5.96483 4.96176 5.88378 4.96177 5.80068V5.46247C4.96177 5.03597 5.1312 4.62693 5.43278 4.32535C5.73436 4.02376 6.1434 3.85434 6.5699 3.85434C6.99641 3.85434 7.40544 4.02376 7.70702 4.32535C8.00861 4.62693 8.17803 5.03597 8.17803 5.46247V8.89282C7.73656 8.49575 7.16367 8.27626 6.5699 8.2767C6.46328 8.2767 6.36102 8.31906 6.28562 8.39445C6.21023 8.46985 6.16787 8.57211 6.16787 8.67873C6.16787 8.78536 6.21023 8.88762 6.28562 8.96301C6.36102 9.03841 6.46328 9.08077 6.5699 9.08077C6.99641 9.08077 7.40544 9.25019 7.70702 9.55178C8.00861 9.85336 8.17803 10.2624 8.17803 10.6889C8.17803 11.1154 8.00861 11.5244 7.70702 11.826C7.40544 12.1276 6.99641 12.297 6.5699 12.297ZM11.7963 10.0858H11.3943C11.2877 10.0858 11.1854 10.1282 11.11 10.2036C11.0346 10.279 10.9923 10.3813 10.9923 10.4879C10.9923 10.5945 11.0346 10.6968 11.11 10.7722C11.1854 10.8476 11.2877 10.8899 11.3943 10.8899H11.7963C11.9277 10.8897 12.0588 10.8803 12.1888 10.8618C12.1554 11.1707 12.0333 11.4633 11.8371 11.7042C11.6409 11.9452 11.3792 12.1241 11.0835 12.2194C10.7878 12.3148 10.4708 12.3224 10.1708 12.2414C9.87085 12.1604 9.60078 11.9943 9.39324 11.7631C9.18571 11.5319 9.0496 11.2455 9.00137 10.9385C8.95313 10.6316 8.99485 10.3173 9.12146 10.0336C9.24807 9.74983 9.45417 9.50886 9.71482 9.33977C9.97548 9.17068 10.2795 9.08072 10.5902 9.08077C10.6969 9.08077 10.7991 9.03841 10.8745 8.96301C10.9499 8.88762 10.9923 8.78536 10.9923 8.67873C10.9923 8.57211 10.9499 8.46985 10.8745 8.39445C10.7991 8.31906 10.6969 8.2767 10.5902 8.2767C9.99647 8.27626 9.42358 8.49575 8.9821 8.89282V5.46247C8.9821 5.03597 9.15153 4.62693 9.45311 4.32535C9.7547 4.02376 10.1637 3.85434 10.5902 3.85434C11.0167 3.85434 11.4258 4.02376 11.7274 4.32535C12.0289 4.62693 12.1984 5.03597 12.1984 5.46247V5.80068C12.1984 5.88378 12.2241 5.96483 12.2721 6.03268C12.3201 6.10054 12.3879 6.15186 12.4662 6.17959C12.9139 6.33721 13.2914 6.64814 13.5318 7.05736C13.7723 7.46657 13.8601 7.94766 13.7799 8.41545C13.6997 8.88324 13.4565 9.30756 13.0935 9.61328C12.7305 9.919 12.271 10.0864 11.7963 10.0858ZM12.6004 7.47263C12.6004 7.57926 12.558 7.68152 12.4826 7.75691C12.4072 7.83231 12.305 7.87467 12.1984 7.87467H11.9973C11.5175 7.87467 11.0574 7.68406 10.7181 7.34478C10.3788 7.0055 10.1882 6.54533 10.1882 6.06552V5.8645C10.1882 5.75788 10.2306 5.65562 10.306 5.58022C10.3813 5.50483 10.4836 5.46247 10.5902 5.46247C10.6969 5.46247 10.7991 5.50483 10.8745 5.58022C10.9499 5.65562 10.9923 5.75788 10.9923 5.8645V6.06552C10.9923 6.33208 11.0982 6.58773 11.2866 6.77622C11.4751 6.96471 11.7308 7.0706 11.9973 7.0706H12.1984C12.305 7.0706 12.4072 7.11296 12.4826 7.18835C12.558 7.26375 12.6004 7.36601 12.6004 7.47263ZM5.16279 7.87467H4.96177C4.85514 7.87467 4.75289 7.83231 4.67749 7.75691C4.60209 7.68152 4.55974 7.57926 4.55974 7.47263C4.55974 7.36601 4.60209 7.26375 4.67749 7.18835C4.75289 7.11296 4.85514 7.0706 4.96177 7.0706H5.16279C5.42935 7.0706 5.685 6.96471 5.87349 6.77622C6.06198 6.58773 6.16787 6.33208 6.16787 6.06552V5.8645C6.16787 5.75788 6.21023 5.65562 6.28562 5.58022C6.36102 5.50483 6.46328 5.46247 6.5699 5.46247C6.67653 5.46247 6.77879 5.50483 6.85418 5.58022C6.92958 5.65562 6.97193 5.75788 6.97193 5.8645V6.06552C6.97193 6.54533 6.78133 7.0055 6.44205 7.34478C6.10277 7.68406 5.6426 7.87467 5.16279 7.87467Z" fill="black"/>
</svg>
